<svg xmlns="http://www.w3.org/2000/svg" width="19.066" height="19.229" viewBox="0 0 19.066 19.229">
  <g id="share" transform="translate(-2.006)">
    <g id="Group_1151" data-name="Group 1151" transform="translate(2.006)">
      <path id="Path_202" data-name="Path 202" d="M17.566,12.221a3.481,3.481,0,0,0-2.737,1.343L8.879,10.521a3.481,3.481,0,0,0,.134-.907,3.452,3.452,0,0,0-.159-.983L14.778,5.6a3.489,3.489,0,1,0-.713-2.1,3.466,3.466,0,0,0,.135.909L8.25,7.455A3.5,3.5,0,1,0,8.3,11.711l5.922,3.029a3.461,3.461,0,0,0-.16.985,3.5,3.5,0,1,0,3.5-3.5Z" transform="translate(-2.006)" fill="#14095d"/>
    </g>
  </g>
</svg>
