<svg xmlns="http://www.w3.org/2000/svg" width="25.371" height="24.263" viewBox="0 0 25.371 24.263">
  <path id="star" d="M13.911,1.808l2.861,5.8a1.366,1.366,0,0,0,1.029.747l6.4.93a1.366,1.366,0,0,1,.757,2.33l-4.63,4.513a1.366,1.366,0,0,0-.393,1.209l1.093,6.373a1.366,1.366,0,0,1-1.982,1.441l-5.723-3.009a1.368,1.368,0,0,0-1.272,0L6.327,25.15a1.366,1.366,0,0,1-1.982-1.441l1.093-6.373a1.366,1.366,0,0,0-.393-1.209L.415,11.614a1.366,1.366,0,0,1,.757-2.33l6.4-.93A1.366,1.366,0,0,0,8.6,7.607l2.861-5.8A1.366,1.366,0,0,1,13.911,1.808Z" transform="translate(-0.001 -1.047)" fill="#ed8a19"/>
</svg>
