<svg xmlns="http://www.w3.org/2000/svg" width="52" height="52" viewBox="0 0 52 52">
  <g id="bell" transform="translate(-23.772 -391.772)">
    <rect id="Rectangle_202" data-name="Rectangle 202" width="52" height="52" transform="translate(23.772 391.772)" fill="none"/>
    <path id="bell-ring" d="M24.429,21.915v1.171H3.343V21.915l2.343-2.343V12.543a8.189,8.189,0,0,1,5.857-7.86v-.34a2.343,2.343,0,1,1,4.686,0v.34a8.189,8.189,0,0,1,5.857,7.86v7.029l2.343,2.343m-8.2,2.343a2.343,2.343,0,0,1-4.686,0M22.965,3.394,21.3,5.057a10.521,10.521,0,0,1,3.128,7.486h2.343a12.84,12.84,0,0,0-3.807-9.149M1,12.543H3.343A10.521,10.521,0,0,1,6.471,5.057L4.807,3.394A12.84,12.84,0,0,0,1,12.543Z" transform="translate(35.886 403.96)" fill="#808d93"/>
  </g>
</svg>
