<svg xmlns="http://www.w3.org/2000/svg" width="20" height="20" viewBox="0 0 20 20">
  <g id="calander" transform="translate(-1213 -726)">
    <rect id="Rectangle_168" data-name="Rectangle 168" width="20" height="20" transform="translate(1213 726)" fill="none"/>
    <path id="calendar-clock" d="M11.64,9.727h1.08v2.051L14.477,12.8l-.54.945-2.3-1.338V9.727m2.88-3.636H4.44v8H7.8a5.143,5.143,0,0,1-.482-2.182,5.066,5.066,0,0,1,5.04-5.091,5.007,5.007,0,0,1,2.16.487V6.091M4.44,15.545A1.447,1.447,0,0,1,3,14.091V3.909A1.442,1.442,0,0,1,4.44,2.455h.72V1H6.6V2.455h5.76V1H13.8V2.455h.72a1.447,1.447,0,0,1,1.44,1.455V8.345A5.1,5.1,0,0,1,12.36,17a4.984,4.984,0,0,1-3.528-1.455H4.44m7.92-7.164a3.527,3.527,0,1,0,3.492,3.527A3.51,3.51,0,0,0,12.36,8.382Z" transform="translate(1213 727)" fill="#818e94"/>
  </g>
</svg>
