<svg xmlns="http://www.w3.org/2000/svg" width="48" height="48" viewBox="0 0 48 48">
  <g id="setting" transform="translate(-1848 -24)">
    <g id="Group_1061" data-name="Group 1061">
      <rect id="Rectangle_202" data-name="Rectangle 202" width="48" height="48" transform="translate(1848 24)" fill="none"/>
      <path id="settings" d="M14.273,18.2A4.2,4.2,0,1,1,18.591,14a4.26,4.26,0,0,1-4.318,4.2m9.166-3.036A9.073,9.073,0,0,0,23.526,14a9.985,9.985,0,0,0-.086-1.2l2.6-1.956a.594.594,0,0,0,.148-.768L23.723,5.924a.614.614,0,0,0-.753-.264L19.9,6.86a9.006,9.006,0,0,0-2.085-1.176L17.358,2.5a.619.619,0,0,0-.617-.5H11.806a.619.619,0,0,0-.617.5l-.456,3.18A9.006,9.006,0,0,0,8.648,6.86L5.576,5.66a.614.614,0,0,0-.753.264L2.356,10.076a.581.581,0,0,0,.148.768l2.6,1.956A9.986,9.986,0,0,0,5.021,14a9.074,9.074,0,0,0,.086,1.164L2.5,17.156a.581.581,0,0,0-.148.768l2.467,4.152a.628.628,0,0,0,.753.264l3.072-1.212a8.626,8.626,0,0,0,2.085,1.188l.456,3.18a.619.619,0,0,0,.617.5h4.935a.619.619,0,0,0,.617-.5l.456-3.18A9.044,9.044,0,0,0,19.9,21.128l3.072,1.212a.628.628,0,0,0,.753-.264l2.467-4.152a.594.594,0,0,0-.148-.768Z" transform="translate(1857.729 34)" fill="#14095d"/>
    </g>
  </g>
</svg>
