<svg xmlns="http://www.w3.org/2000/svg" width="13.457" height="12.918" viewBox="0 0 13.457 12.918">
  <g id="wallet" transform="translate(0 -17.84)">
    <g id="Group_1074" data-name="Group 1074" transform="translate(0 17.84)">
      <path id="Path_162" data-name="Path 162" d="M160.234,20.3l5.365-1.464-.284-.574a.756.756,0,0,0-1.012-.342l-4.8,2.38Z" transform="translate(-157.09 -17.84)" fill="red"/>
      <path id="Path_163" data-name="Path 163" d="M327.309,86.46a.756.756,0,0,0-.2.027l-1.26.345L322,87.882h6.273l-.236-.864A.754.754,0,0,0,327.309,86.46Z" transform="translate(-317.134 -85.423)" fill="red"/>
      <path id="Path_164" data-name="Path 164" d="M11.926,215.56H.757a.757.757,0,0,0-.73.558.782.782,0,0,0-.027.2v8.419a.756.756,0,0,0,.756.756H11.925a.756.756,0,0,0,.756-.756v-2.108H8.2a1.285,1.285,0,0,1-1.285-1.285v-1.68A1.283,1.283,0,0,1,8.2,218.378H12.68v-2.063A.754.754,0,0,0,11.926,215.56Z" transform="translate(0 -212.572)" fill="red"/>
      <path id="Path_165" data-name="Path 165" d="M498.17,436.959a.754.754,0,0,0-.264-.157.77.77,0,0,0-.245-.041h-4.5a.756.756,0,0,0-.756.756V439.2a.756.756,0,0,0,.756.756h4.5a.77.77,0,0,0,.245-.041.734.734,0,0,0,.264-.157.753.753,0,0,0,.246-.558v-1.682A.753.753,0,0,0,498.17,436.959Zm-3.436,1.549a.378.378,0,0,1-.378.378H494.1a.378.378,0,0,1-.378-.378v-.251a.37.37,0,0,1,.145-.3.382.382,0,0,1,.233-.082h.251a.378.378,0,0,1,.378.378v.251Z" transform="translate(-484.959 -430.43)" fill="red"/>
    </g>
  </g>
</svg>
