<svg xmlns="http://www.w3.org/2000/svg" width="23.874" height="18.169" viewBox="0 0 23.874 18.169">
  <g id="email" transform="translate(0 -57.75)" opacity="0.3">
    <g id="Group_1" data-name="Group 1" transform="translate(0 57.75)">
      <path id="Path_1" data-name="Path 1" d="M20.96,57.75H2.919A2.922,2.922,0,0,0,0,60.669V73a2.922,2.922,0,0,0,2.919,2.919H20.955A2.922,2.922,0,0,0,23.874,73V60.674A2.919,2.919,0,0,0,20.96,57.75ZM22.545,73a1.587,1.587,0,0,1-1.586,1.586H2.919A1.587,1.587,0,0,1,1.334,73V60.674a1.587,1.587,0,0,1,1.586-1.586H20.955a1.587,1.587,0,0,1,1.586,1.586V73Z" transform="translate(0 -57.75)"/>
      <path id="Path_2" data-name="Path 2" d="M68.055,115.307l5.839-5.236a.668.668,0,1,0-.894-.993L64.948,116.3l-1.571-1.4s-.01-.01-.01-.015a.988.988,0,0,0-.109-.094l-6.392-5.72a.668.668,0,0,0-.889,1l5.908,5.281L56,120.859a.67.67,0,0,0-.03.944.682.682,0,0,0,.489.212.668.668,0,0,0,.454-.178l5.972-5.587,1.62,1.447a.665.665,0,0,0,.889,0l1.665-1.492L73,121.842a.669.669,0,0,0,.944-.025.67.67,0,0,0-.025-.944Z" transform="translate(-52.998 -106.376)"/>
    </g>
  </g>
</svg>
