<svg xmlns="http://www.w3.org/2000/svg" width="298.844" height="218.805" viewBox="0 0 298.844 218.805">
  <g id="Group_8" data-name="Group 8" transform="translate(2290.479 -30.654)">
    <path id="Path_5" data-name="Path 5" d="M-1737.51,124.136A92.639,92.639,0,0,1-1747.792,167a93.123,93.123,0,0,1-25.607,30.709,91.7,91.7,0,0,1-27.934,15.073A82.378,82.378,0,0,1-1815.195,216a110.843,110.843,0,0,1-18.75,1.31,87.366,87.366,0,0,1-27.371-4.9,27.342,27.342,0,0,1-4.307-1.871,15.766,15.766,0,0,1-3.428-2.516,10.662,10.662,0,0,1-3.039-10.634,13.508,13.508,0,0,1,1.294-3.427,8.9,8.9,0,0,1,7.736-4.816,18.955,18.955,0,0,1,7.075,1.091c2,.652,3.985,1.366,6,1.961a69.589,69.589,0,0,0,15.171,2.623,64.992,64.992,0,0,0,10.28-.167,68.378,68.378,0,0,0,24.594-7,70.427,70.427,0,0,0,33.169-34.115,68.288,68.288,0,0,0,5.513-18.529,70.416,70.416,0,0,0,.761-14.512,68.321,68.321,0,0,0-14.752-39.569A70.372,70.372,0,0,0-1813.093,56.2a72.258,72.258,0,0,0-12.434-2.165,74.372,74.372,0,0,0-11.459-.147,61.972,61.972,0,0,0-18.723,4.151,70.192,70.192,0,0,0-34.476,28.817,70.483,70.483,0,0,0-9.606,24.64,70.749,70.749,0,0,0-1.181,12.425,64.922,64.922,0,0,0,.958,11.118c.322,1.982.7,3.957.948,5.949a15.4,15.4,0,0,1-.171,5.411,10,10,0,0,1-6.549,7.535,11.106,11.106,0,0,1-10.419-.93,11.186,11.186,0,0,1-4.587-6.11,34.763,34.763,0,0,1-1.114-5.166c-.655-3.865-1.121-7.756-1.545-11.653-.122-1.12-.293-2.234-.439-3.351a19.812,19.812,0,0,1-.177-2.932,92.877,92.877,0,0,1,11.818-43.829,96.186,96.186,0,0,1,30.3-33.31,91.074,91.074,0,0,1,34.893-14.516,92.1,92.1,0,0,1,11.524-1.351,83.225,83.225,0,0,1,11.46.164,92.782,92.782,0,0,1,14.784,2.385,93.591,93.591,0,0,1,38.225,19.022,91.033,91.033,0,0,1,30.392,47.184A87.42,87.42,0,0,1-1738,114.415C-1737.7,117.639-1737.515,120.866-1737.51,124.136Z" transform="translate(-254.124 0)" fill="#fff"/>
    <path id="Path_6" data-name="Path 6" d="M-2104.158,137.225c-.23,22.118-7.2,41.848-21.256,58.95-13.29,16.175-30.275,26.6-50.562,31.674a92.864,92.864,0,0,1-14.628,2.41,92.71,92.71,0,0,1-13.812.153,90,90,0,0,1-29.875-7.119,91.059,91.059,0,0,1-30.69-21.342,91.568,91.568,0,0,1-23.212-43.732,94.846,94.846,0,0,1-2.1-15.123c-.144-2.45-.225-4.9-.17-7.348.468-20.919,6.952-39.74,19.939-56.187a92.387,92.387,0,0,1,44.469-30.983,89.37,89.37,0,0,1,15.87-3.663,88.576,88.576,0,0,1,14.075-.876,93.83,93.83,0,0,1,27.581,4.626,38.189,38.189,0,0,1,5.154,2.138,15.162,15.162,0,0,1,3.954,2.779,10.265,10.265,0,0,1,2.837,10.774,13.894,13.894,0,0,1-2.692,5.178,8.879,8.879,0,0,1-6.785,3.3,16.118,16.118,0,0,1-6.574-1.348,69.5,69.5,0,0,0-9.223-2.968,67.155,67.155,0,0,0-9.843-1.658,65.737,65.737,0,0,0-28.056,3.656,72.333,72.333,0,0,0-29.752,19.4,70,70,0,0,0-17.368,33.521,63.738,63.738,0,0,0-1.183,18.869c1.422,16.3,7.478,30.643,18.642,42.7a69.5,69.5,0,0,0,32.777,19.851,74.443,74.443,0,0,0,13.572,2.458,70.266,70.266,0,0,0,11.018.153,67.645,67.645,0,0,0,27.9-8.006,71.06,71.06,0,0,0,35.516-46.806,71.485,71.485,0,0,0,1.636-19.86,67,67,0,0,0-1.259-9.759,23.655,23.655,0,0,1-.453-6.288,10.653,10.653,0,0,1,4.541-8.355,15.358,15.358,0,0,1,2.128-1.3,9.235,9.235,0,0,1,9.264.364,12.576,12.576,0,0,1,4.386,4.466,16.716,16.716,0,0,1,2.05,5.168,97.425,97.425,0,0,1,1.848,12.2C-2104.266,131.924-2104.229,134.567-2104.158,137.225Z" transform="translate(0 -9.27)" fill="#fff"/>
    <path id="Path_7" data-name="Path 7" d="M-2106.109,276.907a1.512,1.512,0,0,1-.179-1.081q-.009-37.119,0-74.238c0-.294,0-.588.017-.881a.44.44,0,0,1,.447-.468c.244-.017.489-.022.733-.022q5.145,0,10.29,0c.245,0,.49.006.734.022a.443.443,0,0,1,.446.469c.009.146.014.294.015.44,0,.343,0,.686,0,1.029v66.446c0,.147,0,.294,0,.441-.008,1.559.107,1.431-1.369,1.562a15.075,15.075,0,0,0-10.841,6.027A2.555,2.555,0,0,1-2106.109,276.907Z" transform="translate(-127.731 -117.6)" fill="#fff"/>
    <path id="Path_8" data-name="Path 8" d="M-1601.977,340.327a6.37,6.37,0,0,1,1.532,1.343,26.5,26.5,0,0,1,5.8,10.767,24.7,24.7,0,0,1,.652,6.853,24.457,24.457,0,0,1-3.539,11.841,24.091,24.091,0,0,1-8.124,8.147,22.987,22.987,0,0,1-8.175,3.137,36.311,36.311,0,0,1-6.434.54q-14.483-.02-28.966-.006c-.441,0-.883.01-1.323-.009-.54-.023-.642-.143-.67-.73-.01-.2,0-.392,0-.588q0-5.072,0-10.145c0-.293.006-.588.034-.879a.4.4,0,0,1,.377-.378c.439-.029.88-.039,1.321-.039q14.777,0,29.554,0c.686,0,1.371-.025,2.057-.049a11.317,11.317,0,0,0,7.622-3.356,21.513,21.513,0,0,0,3.833-4.632,31.406,31.406,0,0,0,4.276-10.562,40.759,40.759,0,0,0,.616-5.839,24.869,24.869,0,0,0-.429-4.232A2.429,2.429,0,0,1-1601.977,340.327Z" transform="translate(-443.353 -214.775)" fill="#fff"/>
    <path id="Path_9" data-name="Path 9" d="M-1620.927,273.295c-.113-.478-.205-.857-.293-1.237a11.368,11.368,0,0,0-8.76-8.917,9.841,9.841,0,0,0-2.618-.3c-4.606.02-9.213,0-13.82.014a27.565,27.565,0,0,1-7.263-.933,23.844,23.844,0,0,1-5.658-2.4,23.543,23.543,0,0,1-6.042-4.861,24.116,24.116,0,0,1-5.884-11.817,24.693,24.693,0,0,1,2.238-15.708,25.411,25.411,0,0,1,4.513-6.306,7.646,7.646,0,0,1,1.438-1.214c.331.395.069.712.008,1.007a25.078,25.078,0,0,0-.536,4.515,34.63,34.63,0,0,0,.765,7.584,31.2,31.2,0,0,0,2.876,7.678,26.49,26.49,0,0,0,4.577,6.266c2.285,2.453,5.245,3.324,8.467,3.484,1.515.076,3.038.015,4.557.015q5.44,0,10.88,0a19.248,19.248,0,0,1,5.491.881,24.236,24.236,0,0,1,5.8,2.459,1.938,1.938,0,0,1,.914,1.245,28.431,28.431,0,0,1,.744,10.633,28.619,28.619,0,0,1-1.819,7.083A1.583,1.583,0,0,1-1620.927,273.295Z" transform="translate(-429.166 -131.054)" fill="#fff"/>
    <path id="Path_10" data-name="Path 10" d="M-2080.8,450.47q-11.908,0-23.818,0c-1.627,0-1.741.182-1.432-1.727a12.481,12.481,0,0,1,2.142-5.566,13.947,13.947,0,0,1,3.351-3.245,13.379,13.379,0,0,1,7.789-2.218c12.007-.033,24.013-.014,36.021-.013.294,0,.589,0,.881.02a.478.478,0,0,1,.48.456,5.465,5.465,0,0,1,.021.587q0,5.367,0,10.733c0,.147,0,.294-.01.441a.518.518,0,0,1-.577.524c-.441.013-.882.011-1.323.011Z" transform="translate(-127.817 -282.303)" fill="#fff"/>
    <path id="Path_11" data-name="Path 11" d="M-1611.2,200.181q6.4,0,12.792,0c.392,0,.784.007,1.175.024a.439.439,0,0,1,.445.47c.012.2.018.392.018.587q0,5.293,0,10.587a5.8,5.8,0,0,1-.027.586.447.447,0,0,1-.488.429c-.441.012-.882.016-1.323.016q-11.763,0-23.526-.006a16.108,16.108,0,0,0-3.786.436,11.34,11.34,0,0,0-6.878,4.929,9.872,9.872,0,0,0-1.739,4.166c-.02.139-.039.29-.207.338-.191.056-.263-.092-.314-.221a14.3,14.3,0,0,1-.617-1.647c-.319-1.232-.622-2.471-.858-3.72a27.546,27.546,0,0,1-.152-7.615,28.942,28.942,0,0,1,1.022-5.028,2.123,2.123,0,0,1,1.14-1.416,22.741,22.741,0,0,1,10.093-2.839c3.182-.116,6.37-.062,9.556-.078C-1613.65,200.176-1612.425,200.181-1611.2,200.181Z" transform="translate(-453.309 -117.574)" fill="#fff"/>
    <path id="Path_12" data-name="Path 12" d="M-2255.745,697.832c.405-1.86.814-3.72,1.216-5.581.413-1.913.813-3.83,1.23-5.742.12-.55.24-.63.8-.661.1-.006.2,0,.294,0,1.21-.014,1.232-.005,1.472,1.114q1.062,4.952,2.113,9.906a1.222,1.222,0,0,0,.476.952c.1-.533.206-1.027.282-1.526.443-2.9.864-5.809,1.321-8.71.32-2.029.07-1.7,2.071-1.732a1.261,1.261,0,0,1,1.038.245c-.275,1.54-.552,3.123-.843,4.7-.692,3.754-1.358,7.513-2.1,11.256-.33,1.655.073,1.534-1.82,1.53-1.375,0-1.249.151-1.568-1.334-.627-2.918-1.218-5.844-1.827-8.766a3.364,3.364,0,0,0-.478-1.359c-.335,1.464-.652,2.833-.959,4.2-.492,2.2-.972,4.4-1.469,6.591-.134.59-.207.63-.776.662q-.074,0-.147,0c-2.2-.064-1.965.425-2.389-1.911-.9-4.959-1.842-9.911-2.766-14.865-.027-.144-.053-.289-.069-.435-.031-.281.068-.482.375-.5.391-.021.783-.026,1.174-.029,1.384-.013,1.254.027,1.435,1.256.448,3.05.923,6.1,1.394,9.144.082.527.2,1.049.3,1.574Z" transform="translate(-20.681 -454.406)" fill="#fff"/>
    <path id="Path_13" data-name="Path 13" d="M-1920.251,703.482c-.809,0-1.588-.014-2.366.005a.824.824,0,0,1-.877-.607c-.507-1.271-1.051-2.528-1.578-3.792-.245-.586-.48-1.178-.73-1.762-.567-1.325-.285-1.238-1.926-1.224-.6,0-.7.094-.7.669-.015,1.615-.007,3.23-.01,4.846,0,.44,0,.881-.01,1.321a.494.494,0,0,1-.551.535c-.587.007-1.174.01-1.762,0a.5.5,0,0,1-.532-.56c-.007-.294-.009-.587-.009-.881q0-7.415,0-14.83c0-.342,0-.685.018-1.027a.46.46,0,0,1,.479-.45c.194-.019.39-.027.586-.027,1.518,0,3.035-.01,4.552.006a9.573,9.573,0,0,1,1.462.119,4.075,4.075,0,0,1,3.482,3.484,9.659,9.659,0,0,1,.04,2.923,4.053,4.053,0,0,1-1.944,3.126c-.75.455-.654.638-.367,1.3.8,1.839,1.623,3.667,2.418,5.508A2.14,2.14,0,0,1-1920.251,703.482Zm-8.167-12.6h-.021c0,.635,0,1.27,0,1.9,0,.325.127.582.5.587.879.013,1.759.042,2.636,0a1.628,1.628,0,0,0,1.587-1.094,4.173,4.173,0,0,0,.017-2.733,1.426,1.426,0,0,0-1.27-1.069c-1.021-.064-2.048-.024-3.073-.015a.355.355,0,0,0-.37.371C-1928.424,689.519-1928.418,690.2-1928.418,690.885Z" transform="translate(-249.105 -454.303)" fill="#fff"/>
    <path id="Path_14" data-name="Path 14" d="M-1438.36,697.573a1.419,1.419,0,0,0,.16-1.026c.009-2.938.005-5.877.006-8.815,0-.392-.008-.784.008-1.175.024-.568.108-.666.713-.666,2.195,0,1.942-.266,1.946,1.8q.014,7.126,0,14.252c0,.392,0,.783-.017,1.175a.461.461,0,0,1-.439.484.874.874,0,0,1-.146.012,4.752,4.752,0,0,1-2.028-.106c-.568-.291-.664-1.044-.934-1.608-1.352-2.825-2.681-5.662-4.023-8.492-.166-.351-.359-.689-.544-1.03-.02-.036-.092-.081-.114-.07-.075.037-.192.094-.2.151-.024.341-.028.685-.028,1.027q0,4.188,0,8.375c0,.294.006.588,0,.881-.025.85-.035.859-.954.88-.2,0-.392,0-.587,0-1.12-.014-1.134-.015-1.135-1.144q-.008-7.714,0-15.427c0-.245.009-.489.027-.733a.373.373,0,0,1,.359-.387c.683-.019,1.367-.018,2.051-.011a.509.509,0,0,1,.451.324c.215.44.427.881.631,1.325q2.09,4.533,4.182,9.066C-1438.825,696.954-1438.746,697.357-1438.36,697.573Z" transform="translate(-585.221 -454.433)" fill="#fff"/>
    <path id="Path_15" data-name="Path 15" d="M-2124.126,703.469a1.114,1.114,0,0,1-.286.08,13.6,13.6,0,0,1-2.635-.067,8.761,8.761,0,0,1-1.052-2.245c-.644-1.482-1.255-2.979-1.862-4.476a.807.807,0,0,0-.894-.583c-.341.025-.686,0-1.028.023a.456.456,0,0,0-.474.455c-.023.391-.031.783-.031,1.175,0,1.618.007,3.235-.007,4.853-.007.8-.071.884-.8.879-2.234-.016-1.952.316-1.958-1.928-.012-4.656,0-9.313,0-13.969,0-.392-.009-.785.008-1.176.024-.556.118-.66.721-.663,1.863-.008,3.725-.021,5.587.017a4.254,4.254,0,0,1,4.313,4.434c0,.539.022,1.08-.014,1.617a4.136,4.136,0,0,1-2.014,3.551c-.784.453-.633.646-.352,1.277.836,1.879,1.656,3.766,2.477,5.652C-2124.28,702.723-2124.028,703.049-2124.126,703.469Zm-8.263-12.6h0c0,.682-.007,1.363,0,2.045,0,.254.094.521.389.526a29.758,29.758,0,0,0,3.059-.018,1.528,1.528,0,0,0,1.43-1.435,8.875,8.875,0,0,0-.008-2.036,1.59,1.59,0,0,0-1.6-1.418c-.874-.044-1.753-.024-2.628-.009-.485.008-.628.146-.641.593C-2132.4,689.7-2132.389,690.286-2132.389,690.87Z" transform="translate(-107.718 -454.39)" fill="#fff"/>
    <path id="Path_16" data-name="Path 16" d="M-1984.373,694.157c0-1.126,0-2.253,0-3.379,0-.343,0-.687.033-1.027a4.851,4.851,0,0,1,3.846-4.453,6.419,6.419,0,0,1,2.768-.08,4.908,4.908,0,0,1,4.19,4.477,5.877,5.877,0,0,1,.042.733c0,2.5,0,4.995,0,7.492a6.067,6.067,0,0,1-.252,1.738,4.7,4.7,0,0,1-3.5,3.413,6.337,6.337,0,0,1-2.764.138,4.9,4.9,0,0,1-4.348-4.939c-.051-1.369-.009-2.742-.009-4.113Zm2.9.092c0,1.025,0,2.05,0,3.076a8.121,8.121,0,0,0,.04,1.023,2.288,2.288,0,0,0,2.244,2.1,2.35,2.35,0,0,0,2.766-2.479q.087-3.805,0-7.614a2.311,2.311,0,0,0-2.558-2.4,2.33,2.33,0,0,0-2.472,2.341c-.024.291-.018.585-.019.878Q-1981.476,692.71-1981.474,694.248Z" transform="translate(-212.296 -453.897)" fill="#fff"/>
    <path id="Path_17" data-name="Path 17" d="M-2177.576,694.276c0,1.126.013,2.252,0,3.378a7,7,0,0,1-.335,2.312,4.6,4.6,0,0,1-2.741,2.881,6.29,6.29,0,0,1-4.728-.008,4.608,4.608,0,0,1-2.893-3.451,8.721,8.721,0,0,1-.21-2.041q.018-3.158,0-6.316a8.467,8.467,0,0,1,.212-2.04,4.671,4.671,0,0,1,3.313-3.6,6.354,6.354,0,0,1,3.761-.031,4.676,4.676,0,0,1,3.524,4.068,11.679,11.679,0,0,1,.1,1.61c.014,1.077,0,2.154,0,3.232Zm-2.843-.043c0-.978.011-1.957,0-2.935a7.538,7.538,0,0,0-.113-1.311,2.266,2.266,0,0,0-2.448-2.043,2.37,2.37,0,0,0-2.563,2.117,2.411,2.411,0,0,0-.043.437q-.005,3.669,0,7.338a2.934,2.934,0,0,0,.36,1.408,2.367,2.367,0,0,0,2.478,1.2,2.208,2.208,0,0,0,2.1-1.541,4.923,4.923,0,0,0,.235-1.59C-2180.426,696.287-2180.421,695.26-2180.42,694.233Z" transform="translate(-70.736 -453.891)" fill="#fff"/>
    <path id="Path_18" data-name="Path 18" d="M-1489.253,694.254c0,1.126.013,2.252,0,3.378a7.386,7.386,0,0,1-.32,2.316,4.672,4.672,0,0,1-3.259,3.112,6.348,6.348,0,0,1-3.764-.016,4.677,4.677,0,0,1-3.345-3.569,8.4,8.4,0,0,1-.221-2.039c.011-2.154-.01-4.309.013-6.463a9.2,9.2,0,0,1,.2-1.893,4.641,4.641,0,0,1,3.406-3.676,6.429,6.429,0,0,1,3.621-.021,4.738,4.738,0,0,1,3.59,4.175,39.538,39.538,0,0,1,.091,4.109c0,.2,0,.392,0,.587Zm-8.026-.094c0,1.125.007,2.251,0,3.375a3.685,3.685,0,0,0,.287,1.574,2.34,2.34,0,0,0,2.521,1.368,2.208,2.208,0,0,0,2.171-1.646,5.371,5.371,0,0,0,.2-1.595c-.006-2.006.005-4.011-.009-6.017a6.434,6.434,0,0,0-.135-1.308,2.209,2.209,0,0,0-2.24-1.929,2.419,2.419,0,0,0-2.777,2.363,8.31,8.31,0,0,0-.021.88Q-1497.282,692.693-1497.278,694.16Z" transform="translate(-548.123 -453.916)" fill="#fff"/>
    <path id="Path_19" data-name="Path 19" d="M-1703.966,694.2c0,1.077-.011,2.154,0,3.231a8.013,8.013,0,0,1-.2,1.894,4.709,4.709,0,0,1-3.671,3.771,6.366,6.366,0,0,1-3.337-.029,4.709,4.709,0,0,1-3.594-4.014,10.48,10.48,0,0,1-.11-1.757q-.018-3.158,0-6.316c0-.489.044-.978.084-1.465a4.7,4.7,0,0,1,.569-1.808,5.449,5.449,0,0,1,5.806-2.527,4.858,4.858,0,0,1,4.252,3.895,8.44,8.44,0,0,1,.2,1.894C-1703.977,692.044-1703.966,693.121-1703.966,694.2Zm-2.891.027h0c0-1.125,0-2.25,0-3.375a3.725,3.725,0,0,0-.246-1.436,2.313,2.313,0,0,0-2.461-1.461,2.258,2.258,0,0,0-2.246,1.562,4.963,4.963,0,0,0-.22,1.592c.009,2.054-.01,4.109.013,6.163a6.7,6.7,0,0,0,.208,1.593,1.976,1.976,0,0,0,1.487,1.485c1.537.37,3.2-.028,3.444-2.308a8.586,8.586,0,0,0,.021-.88Q-1706.854,695.693-1706.857,694.225Z" transform="translate(-399.208 -453.891)" fill="#fff"/>
    <path id="Path_20" data-name="Path 20" d="M-2079.194,685.908v7.884c.417.088.483-.2.592-.385q1.726-2.987,3.438-5.982c.219-.382.455-.755.661-1.144a.853.853,0,0,1,.811-.515,13.515,13.515,0,0,1,2.445.052c.208.373-.013.6-.155.827-1.032,1.663-2.073,3.321-3.107,4.983-.944,1.519-.851,1.081-.124,2.636,1.243,2.659,2.54,5.292,3.811,7.938.166.346.313.7.508,1.143a3.033,3.033,0,0,1-1.459.16,11.8,11.8,0,0,1-1.465-.041c-.339-.034-.427-.374-.546-.632-.634-1.378-1.253-2.762-1.884-4.141q-.55-1.2-1.124-2.39c-.129-.268-.412-.313-.56-.086-.56.862-1.1,1.734-1.654,2.6a1.759,1.759,0,0,0-.165,1c-.007,1.028,0,2.056-.014,3.084-.008.466-.144.573-.631.606-.049,0-.1.005-.147,0-2.353-.029-2.068.316-2.073-1.974-.011-4.7,0-9.4,0-14.1q0-.587.013-1.175a.434.434,0,0,1,.433-.484A6.45,6.45,0,0,1-2079.194,685.908Z" transform="translate(-144.56 -454.328)" fill="#fff"/>
    <path id="Path_21" data-name="Path 21" d="M-1604.826,692.782c0,1.912,0,3.823,0,5.735a6.262,6.262,0,0,1-.389,2.305,4.372,4.372,0,0,1-3.034,2.757,6.611,6.611,0,0,1-3.485.052,4.381,4.381,0,0,1-3.4-3.475,8.492,8.492,0,0,1-.219-1.892c-.02-3.774-.01-7.548-.008-11.322,0-.2.01-.392.025-.587a.478.478,0,0,1,.473-.461,3.062,3.062,0,0,1,.44-.017c2.167.025,1.9-.257,1.912,1.839.012,3.382,0,6.764.005,10.146a4.783,4.783,0,0,0,.149,1.6,2.207,2.207,0,0,0,2.539,1.523,2.018,2.018,0,0,0,2.05-1.745,9.826,9.826,0,0,0,.128-1.754c.011-3.431.007-6.862.006-10.293,0-1.363-.01-1.325,1.261-1.318.343,0,.686.006,1.029.013.371.008.511.232.512.571q.006,2.867.009,5.735v.588Z" transform="translate(-468.23 -454.43)" fill="#fff"/>
    <path id="Path_22" data-name="Path 22" d="M-1827.332,694.654q0-3.6,0-7.2c0-.391.008-.783.036-1.173a.415.415,0,0,1,.373-.388,3.77,3.77,0,0,1,.586-.026q3.892,0,7.785,0a3.676,3.676,0,0,1,.583.038.4.4,0,0,1,.374.382c.011.635.01,1.27-.015,1.9a.387.387,0,0,1-.4.346c-.39.022-.782.024-1.173.026-1.567,0-3.134,0-4.7.013-.484,0-.611.132-.615.616-.012,1.224,0,2.448.006,3.672a.518.518,0,0,0,.54.559c.391.022.783.021,1.174.022,1.175,0,2.35,0,3.526.011.5.006.656.142.657.578.005,2.419.3,2.1-1.924,2.121-1.126.011-2.252,0-3.378.016-.458.008-.6.155-.6.633-.015,1.126-.018,2.252,0,3.378.009.648.087.717.814.724,1.469.013,2.938,0,4.407.006.392,0,.783,0,1.175.012a.5.5,0,0,1,.542.55c.005.538.006,1.077-.006,1.615-.008.362-.24.507-.573.517-.293.009-.587.01-.881.01h-6.9c-.245,0-.49.007-.734-.005-.5-.025-.626-.128-.651-.586-.021-.39-.013-.783-.014-1.175Q-1827.333,698.253-1827.332,694.654Z" transform="translate(-321.216 -454.426)" fill="#fff"/>
    <path id="Path_23" data-name="Path 23" d="M-1758.213,689.983c-.25-.394-.453-.781-.717-1.121a2.675,2.675,0,0,0-3.574-.482,1.5,1.5,0,0,0-.678,1.088c-.127,1.425-.123,2.286,1.675,2.989.592.231,1.215.378,1.814.594a17.864,17.864,0,0,1,2.042.81,3.728,3.728,0,0,1,2.111,3.149,11.338,11.338,0,0,1,0,2.2,4.05,4.05,0,0,1-2.894,3.7,7.04,7.04,0,0,1-5.434-.13,4.742,4.742,0,0,1-2.428-2.634c-.2-.5-.121-.72.346-.942.531-.252,1.071-.484,1.608-.721a.47.47,0,0,1,.7.28,2.535,2.535,0,0,0,.208.388,3.118,3.118,0,0,0,3.86,1.2,1.7,1.7,0,0,0,1.181-1.538c.078-1.5.217-2.413-1.91-3.1-.885-.287-1.778-.55-2.65-.87a4.2,4.2,0,0,1-3.118-4.442c0-.049,0-.1,0-.147-.006-3.08,1.636-4.858,4.7-5.065a8.253,8.253,0,0,1,1.467.015,4.5,4.5,0,0,1,4.019,3.175.514.514,0,0,1-.288.723A12.275,12.275,0,0,1-1758.213,689.983Z" transform="translate(-363.48 -453.936)" fill="#fff"/>
    <path id="Path_24" data-name="Path 24" d="M-1386.043,703.3a5,5,0,0,1-2.983-.74,4.362,4.362,0,0,1-1.675-1.608c-.773-1.281-.694-1.518.7-2.128.179-.078.362-.149.536-.238.589-.3.8-.307,1.126.37.838,1.721,2.474,1.741,3.766,1.415a1.781,1.781,0,0,0,1.389-1.69c.019-.194,0-.393.015-.587a2.023,2.023,0,0,0-1.478-2.254c-.734-.27-1.492-.474-2.229-.736a16.233,16.233,0,0,1-1.9-.76,3.537,3.537,0,0,1-1.93-2.465,7.28,7.28,0,0,1,.071-3.629,3.847,3.847,0,0,1,2.252-2.555,6.783,6.783,0,0,1,4.734-.3,3.95,3.95,0,0,1,2.472,1.949c.886,1.665.723,1.45-.663,2.13a8.229,8.229,0,0,1-.81.343.456.456,0,0,1-.614-.228,5.347,5.347,0,0,0-.3-.507,2.669,2.669,0,0,0-3.49-.913,1.563,1.563,0,0,0-.91,1.087c-.374,1.7.17,2.592,1.461,3.093.637.248,1.3.423,1.948.65a18.93,18.93,0,0,1,1.918.729,3.8,3.8,0,0,1,2.224,2.915,8.06,8.06,0,0,1-.07,3.206,4.034,4.034,0,0,1-2.455,2.912A7.205,7.205,0,0,1-1386.043,703.3Z" transform="translate(-623.704 -453.893)" fill="#fff"/>
    <path id="Path_25" data-name="Path 25" d="M-1870.869,690.777c-.154-.482-.273-.955-.455-1.4a2,2,0,0,0-2.033-1.387,2.125,2.125,0,0,0-2.124,1.493,3.442,3.442,0,0,0-.212,1.294q0,3.453,0,6.905a3.394,3.394,0,0,0,.218,1.294,2.218,2.218,0,0,0,2.713,1.429,1.96,1.96,0,0,0,1.384-1.212c.208-.491.341-1.014.519-1.558.3-.026.588-.072.877-.072,2.174,0,2.1-.171,1.581,1.982-.6,2.51-2.325,3.683-5.075,3.789a4.665,4.665,0,0,1-3.123-1.016,4.663,4.663,0,0,1-1.781-2.784,7.274,7.274,0,0,1-.23-1.742c0-.147,0-.294,0-.441,0-2.106.009-4.212,0-6.318a8.079,8.079,0,0,1,.286-2.324,4.584,4.584,0,0,1,3.36-3.362,6.316,6.316,0,0,1,2.62-.151,4.346,4.346,0,0,1,3.844,3.366c.67,2.519.757,2.268-1.609,2.28C-1870.358,690.841-1870.6,690.8-1870.869,690.777Z" transform="translate(-285.648 -453.908)" fill="#fff"/>
    <path id="Path_26" data-name="Path 26" d="M-2029.549,694.656q0-3.747,0-7.494c0-.293.012-.587.03-.88a.375.375,0,0,1,.367-.378c.243-.023.488-.036.732-.036q3.673,0,7.346,0a5.708,5.708,0,0,1,.732.033.394.394,0,0,1,.374.381c.009.634.005,1.269-.027,1.9a.394.394,0,0,1-.406.348c-.391.019-.783.019-1.175.02-1.518,0-3.037,0-4.555.011-.482,0-.634.147-.638.6q-.018,1.909.006,3.82c.006.451.167.6.642.607,1.224.017,2.449.009,3.673.014.343,0,.685.007,1.028.021a.453.453,0,0,1,.462.464c.021.243.017.489.017.734-.005,1.528.1,1.437-1.427,1.438-1.176,0-2.351-.01-3.527.005-.762.01-.87.106-.878.831-.017,1.567,0,3.135-.009,4.7-.012,2.049.2,1.779-1.8,1.8a4.549,4.549,0,0,1-.585-.034.381.381,0,0,1-.353-.392c-.021-.391-.03-.782-.03-1.174Q-2029.552,698.329-2029.549,694.656Z" transform="translate(-180.968 -454.425)" fill="#fff"/>
    <path id="Path_27" data-name="Path 27" d="M-1563.135,696.032q0-2.864,0-5.728c0-.343.007-.686-.006-1.028-.025-.622-.087-.7-.667-.714s-1.175-.006-1.762-.009c-.343,0-.686,0-1.028-.011a.449.449,0,0,1-.486-.433,1.345,1.345,0,0,1-.019-.145c.011-2.437-.321-2.084,1.932-2.1,2.4-.017,4.8-.005,7.2,0,.391,0,.783.007,1.174.026a.442.442,0,0,1,.446.47c.01.146.017.293.016.44-.01,1.949.184,1.721-1.7,1.77-.714.019-1.461-.221-2.144.186a6.723,6.723,0,0,0-.1,2.033c-.013,3.721-.005,7.441-.007,11.162q0,.587-.024,1.174a.464.464,0,0,1-.464.466,3.4,3.4,0,0,1-.44.015c-2.148-.021-1.9.249-1.911-1.842C-1563.142,699.851-1563.135,697.941-1563.135,696.032Z" transform="translate(-501.691 -454.416)" fill="#fff"/>
    <path id="Path_28" data-name="Path 28" d="M-1661.555,694.61q0-3.523,0-7.045c0-.342-.008-.686.009-1.027.023-.486.151-.637.59-.653.537-.021,1.076-.02,1.614,0,.489.015.626.146.646.591.018.391.01.783.01,1.174q0,5.577,0,11.154c0,.293,0,.587,0,.88-.006,1.223-.023,1.252,1.18,1.247,1.37-.006,2.739,0,4.109,0,1.623,0,1.481-.073,1.488,1.528,0,.2-.005.391-.007.587a.5.5,0,0,1-.514.574c-.146.009-.293.011-.44.011q-3.816,0-7.631,0a4.633,4.633,0,0,1-.586-.022.466.466,0,0,1-.446-.482c-.014-.391-.02-.782-.021-1.173Q-1661.557,698.28-1661.555,694.61Z" transform="translate(-436.191 -454.427)" fill="#fff"/>
    <path id="Path_29" data-name="Path 29" d="M-1519.373,694.644q0,3.744,0,7.488c0,.342-.01.685-.036,1.025a.369.369,0,0,1-.384.359c-.683.01-1.367.013-2.05-.007a.391.391,0,0,1-.365-.389,7.215,7.215,0,0,1-.034-.732q0-7.708,0-15.417c0-.2,0-.392.01-.587.031-.457.146-.56.648-.6.049,0,.1-.006.147-.006,2.417.039,2.04-.342,2.061,1.961S-1519.373,692.344-1519.373,694.644Z" transform="translate(-532.812 -454.365)" fill="#fff"/>
  </g>
</svg>
