<svg xmlns="http://www.w3.org/2000/svg" width="20.126" height="23.001" viewBox="0 0 20.126 23.001">
  <g id="password" transform="translate(-32)">
    <g id="Group_3" data-name="Group 3" transform="translate(32)">
      <g id="Group_2" data-name="Group 2">
        <circle id="Ellipse_1" data-name="Ellipse 1" cx="1" cy="1" r="1" transform="translate(14 14.832)" fill="#b1b1b1"/>
        <path id="Path_3" data-name="Path 3" d="M51.227,20.262a.9.9,0,0,0,.9-.9V12.04a3.6,3.6,0,0,0-3.594-3.594h-1.08V5.277a5.392,5.392,0,0,0-10.782,0V8.446H35.594A3.6,3.6,0,0,0,32,12.04v7.368A3.6,3.6,0,0,0,35.594,23H48.532a3.6,3.6,0,0,0,3.594-3.594.9.9,0,0,0-1.8,0,1.8,1.8,0,0,1-1.8,1.8H35.594a1.8,1.8,0,0,1-1.8-1.8V12.04a1.8,1.8,0,0,1,1.8-1.8H48.532a1.8,1.8,0,0,1,1.8,1.8v7.324A.9.9,0,0,0,51.227,20.262ZM45.655,8.446H38.467V5.277a3.6,3.6,0,0,1,7.188,0Z" transform="translate(-32)" fill="#b1b1b1"/>
        <circle id="Ellipse_2" data-name="Ellipse 2" cx="1" cy="1" r="1" transform="translate(7 14.832)" fill="#b1b1b1"/>
        <circle id="Ellipse_3" data-name="Ellipse 3" cx="1" cy="1" r="1" transform="translate(4 14.832)" fill="#b1b1b1"/>
        <circle id="Ellipse_4" data-name="Ellipse 4" cx="1" cy="1" r="1" transform="translate(11 14.832)" fill="#b1b1b1"/>
      </g>
    </g>
  </g>
</svg>
